<svg width="115" height="35" viewBox="0 0 115 35" fill="none" xmlns="http://www.w3.org/2000/svg">
<path fill-rule="evenodd" clip-rule="evenodd" d="M71.2454 27.3713C64.5717 32.346 54.8985 35.0002 46.5701 35.0002C34.8922 35.0002 24.3792 30.6321 16.4255 23.3673C15.8008 22.7959 16.3607 22.0174 17.1105 22.4623C25.6939 27.5129 36.307 30.5513 47.2699 30.5513C54.6636 30.5513 62.797 29.0043 70.2757 25.794C71.4054 25.3086 72.3502 26.5422 71.2454 27.3713Z" fill="#B9B9B9"/>
<path fill-rule="evenodd" clip-rule="evenodd" d="M74.0209 24.161C73.1711 23.0588 68.3819 23.6402 66.2322 23.8981C65.5774 23.979 65.4775 23.4026 66.0673 22.9881C69.8816 20.2733 76.1405 21.0569 76.8703 21.9669C77.6001 22.8819 76.6804 29.2267 73.096 32.255C72.5461 32.7202 72.0211 32.4724 72.2661 31.8556C73.071 29.8233 74.8757 25.2682 74.0209 24.161Z" fill="#B9B9B9"/>
<path fill-rule="evenodd" clip-rule="evenodd" d="M66.3827 3.82202V1.18303C66.3827 0.783614 66.6826 0.515673 67.0426 0.515673H78.7254C79.1004 0.515673 79.4003 0.788608 79.4003 1.18303V3.44282C79.3953 3.82202 79.0804 4.31749 78.5205 5.1011L72.4666 13.8422C74.7162 13.7867 77.0907 14.1254 79.1303 15.2882C79.5903 15.551 79.7152 15.9353 79.7503 16.3144V19.1304C79.7503 19.5146 79.3303 19.9646 78.8904 19.732C75.296 17.8261 70.522 17.6188 66.5477 19.7523C66.1428 19.9748 65.7178 19.5298 65.7178 19.1456V16.4712C65.7178 16.0415 65.7228 15.3084 66.1477 14.6563L73.1614 4.48438H67.0575C66.6826 4.48438 66.3827 4.21644 66.3827 3.82202ZM23.7656 20.2881H20.2112C19.8713 20.2629 19.6014 20.0051 19.5764 19.6764V1.22856C19.5764 0.859455 19.8813 0.566195 20.2612 0.566195H23.5756C23.9206 0.581294 24.1955 0.849351 24.2205 1.18291V3.59461H24.2855C25.1503 1.26398 26.775 0.177117 28.9646 0.177117C31.1891 0.177117 32.579 1.26398 33.5788 3.59461C34.4387 1.26398 36.3933 0.177117 38.4879 0.177117C39.9776 0.177117 41.6073 0.798945 42.6021 2.19428C43.7269 3.7463 43.497 6.00109 43.497 7.97784L43.4919 19.6209C43.4919 19.99 43.187 20.2883 42.8071 20.2883H39.2577C38.9029 20.2631 38.6178 19.9749 38.6178 19.6209V9.84332C38.6178 9.0647 38.6879 7.12326 38.5179 6.38529C38.253 5.14663 37.4581 4.79773 36.4282 4.79773C35.5684 4.79773 34.6686 5.37914 34.3036 6.30945C33.9387 7.23975 33.9738 8.79676 33.9738 9.84332V19.6208C33.9738 19.9899 33.6687 20.2881 33.2888 20.2881H29.7395C29.3796 20.2629 29.0996 19.9748 29.0996 19.6208L29.0946 9.84332C29.0946 7.78562 29.4295 4.75743 26.905 4.75743C24.3505 4.75743 24.4505 7.70978 24.4505 9.84332V19.6208C24.4505 19.9899 24.1456 20.2881 23.7656 20.2881ZM89.4585 0.177001C94.7324 0.177001 97.587 4.75732 97.587 10.5814C97.587 16.2083 94.4326 20.6725 89.4583 20.6725C84.2793 20.6725 81.4599 16.092 81.4599 10.3842C81.4599 4.64106 84.3144 0.177001 89.4585 0.177001ZM89.4884 3.94339C86.8688 3.94339 86.7039 7.5531 86.7039 9.80278C86.7039 12.0577 86.669 16.8705 89.4585 16.8705C92.213 16.8705 92.3429 12.9879 92.3429 10.6218C92.3429 9.0647 92.2779 7.20421 91.813 5.72804C91.4131 4.44385 90.6183 3.94339 89.4885 3.94339H89.4884ZM104.426 20.2881H100.886C100.531 20.2629 100.246 19.9748 100.246 19.6208L100.241 1.16781C100.271 0.829142 100.566 0.566195 100.926 0.566195H104.221C104.531 0.581294 104.786 0.793835 104.856 1.08187V3.90297H104.921C105.915 1.38024 107.31 0.177001 109.765 0.177001C111.359 0.177001 112.914 0.758295 113.914 2.35084C114.844 3.82701 114.844 6.30945 114.844 8.09409V19.7067C114.804 20.0303 114.509 20.2881 114.159 20.2881H110.595C110.27 20.2629 110 20.0202 109.965 19.7067V9.68653C109.965 7.66936 110.195 4.71678 107.74 4.71678C106.875 4.71678 106.08 5.3033 105.686 6.19307C105.186 7.32058 105.121 8.44287 105.121 9.68664V19.6208C105.116 19.9899 104.806 20.2881 104.426 20.2881ZM57.0694 11.4763C57.0694 12.8766 57.1044 14.0445 56.4045 15.2881C55.8397 16.2993 54.9399 16.921 53.945 16.921C52.5803 16.921 51.7804 15.8696 51.7804 14.3175C51.7804 11.2538 54.495 10.6977 57.0694 10.6977V11.4763ZM60.6537 20.2376C60.4188 20.4499 60.0789 20.4651 59.814 20.3236C58.6342 19.3326 58.4192 18.8726 57.7743 17.9272C55.8246 19.9394 54.44 20.541 51.9153 20.541C48.9209 20.541 46.5964 18.6754 46.5964 14.9394C46.5964 12.0223 48.1561 10.0354 50.3856 9.0647C52.3153 8.20524 55.0098 8.05356 57.0695 7.81593V7.3509C57.0695 6.49644 57.1344 5.4853 56.6345 4.74721C56.2046 4.08497 55.3747 3.81192 54.6399 3.81192C53.2851 3.81192 52.0804 4.51458 51.7855 5.97066C51.7254 6.29423 51.4904 6.6127 51.1655 6.62791L47.7211 6.25381C47.4313 6.18808 47.1063 5.95045 47.1912 5.50051C47.9811 1.27408 51.7604 0 55.1399 0C56.8696 0 59.1291 0.465151 60.4939 1.78976C62.2235 3.42272 62.0586 5.60156 62.0586 7.97273V13.5743C62.0586 15.2579 62.7486 15.9959 63.3983 16.9059C63.6234 17.2295 63.6733 17.6188 63.3834 17.8615C62.6585 18.4732 61.3687 19.6107 60.6589 20.2477L60.6539 20.2376H60.6537ZM10.4731 11.4763C10.4731 12.8766 10.5081 14.0445 9.80812 15.2881C9.24331 16.2993 8.34845 16.921 7.34862 16.921C5.98393 16.921 5.18898 15.8696 5.18898 14.3175C5.18898 11.2538 7.90355 10.6977 10.4731 10.6977V11.4763ZM14.0573 20.2376C13.8225 20.4499 13.4825 20.4651 13.2176 20.3236C12.0378 19.3326 11.8278 18.8726 11.178 17.9272C9.22827 19.9394 7.84865 20.541 5.31899 20.541C2.32961 20.541 0 18.6754 0 14.9394C0 12.0223 1.56475 10.0354 3.78927 9.0647C5.71899 8.20524 8.41345 8.05356 10.4731 7.81593V7.3509C10.4731 6.49644 10.5381 5.4853 10.0431 4.74721C9.60817 4.08497 8.77843 3.81192 8.04848 3.81192C6.69378 3.81192 5.48402 4.51458 5.18898 5.97066C5.12904 6.29423 4.89407 6.6127 4.57411 6.62791L1.12478 6.25381C0.834799 6.18808 0.514959 5.95045 0.594891 5.50051C1.38972 1.27408 5.16406 0 8.54346 0C10.273 0 12.5327 0.465151 13.8975 1.78976C15.627 3.42272 15.4621 5.60156 15.4621 7.97273V13.5743C15.4621 15.2579 16.152 15.9959 16.8019 16.9059C17.0319 17.2295 17.0819 17.6188 16.7919 17.8615C16.067 18.4732 14.7773 19.6107 14.0674 20.2477L14.0574 20.2376" fill="#B9B9B9"/>
</svg>
