<svg width="188" height="23" viewBox="0 0 188 23" fill="none" xmlns="http://www.w3.org/2000/svg">
<path d="M103.178 9.23219C103.178 11.9616 104.477 14.152 109.553 15.1107C112.583 15.7316 113.217 16.2127 113.217 17.2021C113.217 18.1915 112.583 18.7852 110.431 18.7852C107.852 18.7395 105.324 18.0691 103.073 16.8336V21.3031C104.602 22.0366 106.621 22.8588 110.386 22.8588C115.696 22.8588 117.802 20.5422 117.802 17.0929L103.178 9.23219ZM117.802 17.0929C117.802 13.8415 116.044 12.3164 111.079 11.269C108.338 10.6754 107.673 10.0817 107.673 9.22195C107.673 8.14724 108.655 7.69689 110.459 7.69689C112.652 7.69689 114.815 8.34854 116.866 9.25266V4.99135C114.9 4.11429 112.758 3.67947 110.598 3.71875C105.692 3.71875 103.153 5.81017 103.153 9.23219" fill="#B9B9B9"/>
<path d="M175.425 22.5757V8.41338L177.127 12.1732L182.842 22.5757H187.918V4.00195H183.879V15.9909L182.351 12.5109L177.761 4.00195H171.385V22.5757H175.425Z" fill="#B9B9B9"/>
<path d="M141.279 4.00195H145.694V22.5757H141.279V4.00195Z" fill="#B9B9B9"/>
<path d="M136.185 17.0929C136.185 13.8415 134.427 12.3164 129.461 11.269C126.721 10.6754 126.056 10.0817 126.056 9.22195C126.056 8.14724 127.038 7.69689 128.841 7.69689C131.035 7.69689 133.197 8.34854 135.248 9.25266V4.99135C133.282 4.11429 131.141 3.67947 128.981 3.71875C124.074 3.71875 121.536 5.81017 121.536 9.23219C121.536 11.9616 122.835 14.152 127.912 15.1107C130.941 15.7316 131.575 16.2127 131.575 17.2021C131.575 18.1915 130.941 18.7852 128.789 18.7852C126.21 18.7395 123.682 18.0691 121.431 16.8336V21.3031C122.96 22.0366 124.98 22.8588 128.744 22.8588C134.054 22.8588 136.161 20.5422 136.161 17.0929" fill="#B9B9B9"/>
<path d="M77.9606 22.5757L79.3882 18.5634H73.3294V4.00195H68.8862V22.5757H77.9606Z" fill="#B9B9B9"/>
<path d="M55.8631 8.01762V22.5757H60.3062V8.01762H65.5572V4.00195H50.9568V8.01762H55.8631Z" fill="#B9B9B9"/>
<path d="M44.5149 4.00195H38.6929L32.0769 22.5757H37.1433L38.0696 19.4471C40.3814 20.1141 42.8404 20.1141 45.1522 19.4471L46.0888 22.5757H51.1379L44.5149 4.00195ZM41.6039 16.1001C40.7789 16.1012 39.9581 15.9863 39.1664 15.7589L41.6039 7.64915L44.0414 15.7589C43.2497 15.9863 42.4289 16.1012 41.6039 16.1001Z" fill="#B9B9B9"/>
<path d="M93.6018 4.00195H87.7798L81.1638 22.5757H86.2128L87.1565 19.4471C89.4639 20.1115 91.9177 20.1115 94.2251 19.4471L95.1618 22.5757H100.211L93.6018 4.00195ZM90.6908 16.1001C89.8659 16.1012 89.045 15.9863 88.2534 15.7589L90.6908 7.64915L93.1283 15.7589C92.3366 15.9863 91.5158 16.1012 90.6908 16.1001Z" fill="#B9B9B9"/>
<path d="M161.6 4.00195H155.778L149.162 22.5757H154.211L155.155 19.4471C157.462 20.1115 159.916 20.1115 162.223 19.4471L163.16 22.5757H168.209L161.6 4.00195ZM158.689 16.1001C157.864 16.1012 157.043 15.9863 156.251 15.7589L158.689 7.64915L161.126 15.7589C160.335 15.9863 159.514 16.1012 158.689 16.1001Z" fill="#B9B9B9"/>
<path d="M6.62866 10.5337V10.5336C6.56922 10.4657 6.49399 10.4128 6.40931 10.3793C6.32463 10.3459 6.23299 10.3329 6.14211 10.3414C6.0654 10.3551 5.99339 10.3874 5.93259 10.4352C5.87179 10.483 5.82411 10.5449 5.79386 10.6153L0.0532886 21.8583C0.0148676 21.9335 -0.00330633 22.017 0.000494074 22.1009C0.00429448 22.1849 0.029943 22.2665 0.0750017 22.338C0.12006 22.4095 0.183032 22.4685 0.257932 22.5094C0.332831 22.5503 0.41717 22.5718 0.502931 22.5718H8.49607C8.58968 22.5737 8.68182 22.5488 8.76131 22.5003C8.8408 22.4519 8.90422 22.3818 8.94386 22.2987C10.6232 18.9033 9.58394 13.627 6.62866 10.5337Z" fill="#B9B9B9"/>
<path d="M23.0001 21.8624C22.8925 21.6513 12.2448 0.776521 11.9829 0.257487C11.9487 0.184769 11.895 0.122478 11.8276 0.0772097C11.7601 0.0319418 11.6815 0.00538149 11.5999 0.000341178L11.5818 0C11.4885 0.00470911 11.398 0.032618 11.3188 0.0810943C11.2396 0.129571 11.1743 0.197017 11.1291 0.277071L11.1286 0.277548C8.24233 4.75749 7.9153 10.1666 10.254 14.7469L14.1072 22.2972C14.148 22.3805 14.2119 22.4509 14.2917 22.5002C14.3716 22.5495 14.4639 22.5757 14.5583 22.5757H22.5502C22.636 22.5758 22.7204 22.5544 22.7953 22.5135C22.8703 22.4726 22.9333 22.4136 22.9784 22.3421C23.0235 22.2706 23.0491 22.189 23.0529 22.105C23.0567 22.0211 23.0386 21.9375 23.0001 21.8624Z" fill="#B9B9B9"/>
</svg>
