<svg width="24" height="16" viewBox="0 0 24 16" fill="none" xmlns="http://www.w3.org/2000/svg">
<path fill-rule="evenodd" clip-rule="evenodd" d="M0 7.71488C0 7.48756 0.0903001 7.26956 0.251035 7.10882C0.41177 6.94809 0.629774 6.85779 0.857088 6.85779H21.0724L15.6779 1.46499C15.5169 1.30405 15.4265 1.08577 15.4265 0.858171C15.4265 0.63057 15.5169 0.41229 15.6779 0.251352C15.8388 0.090414 16.0571 5.36246e-09 16.2847 0C16.5123 -5.36246e-09 16.7306 0.090414 16.8915 0.251352L23.7482 7.10806C23.828 7.18767 23.8913 7.28225 23.9346 7.38638C23.9778 7.49051 24 7.60214 24 7.71488C24 7.82761 23.9778 7.93924 23.9346 8.04337C23.8913 8.1475 23.828 8.24208 23.7482 8.32169L16.8915 15.1784C16.7306 15.3393 16.5123 15.4298 16.2847 15.4298C16.0571 15.4298 15.8388 15.3393 15.6779 15.1784C15.5169 15.0175 15.4265 14.7992 15.4265 14.5716C15.4265 14.344 15.5169 14.1257 15.6779 13.9648L21.0724 8.57196H0.857088C0.629774 8.57196 0.41177 8.48166 0.251035 8.32093C0.0903001 8.16019 0 7.94219 0 7.71488Z" fill="#24272E"/>
</svg>
