<svg width="120" height="29" viewBox="0 0 120 29" fill="none" xmlns="http://www.w3.org/2000/svg">
<path d="M0 1.64246H7.7854C12.7488 1.64246 16.849 4.5419 16.849 11.162V12.5531C16.849 19.2235 13.0144 22.2235 7.9348 22.2235H0V1.64246ZM4.3492 5.37989V18.4693H7.6858C10.5078 18.4693 12.4002 16.6089 12.4002 12.4693V11.3799C12.4002 7.24022 10.4082 5.37989 7.5364 5.37989H4.3492ZM19.1564 5.58101H22.6424L23.2068 9.45251C23.8708 6.82123 25.564 5.41341 28.635 5.41341H29.714V9.85475H27.9212C24.3854 9.85475 23.5222 11.095 23.5222 14.6145V22.2737H19.2228V5.58101H19.1564ZM30.5772 14.2626V13.7933C30.5772 8.21229 34.113 5.16201 38.927 5.16201C43.8406 5.16201 47.2768 8.21229 47.2768 13.7933V14.2626C47.2768 19.743 43.9402 22.6927 38.927 22.6927C33.5984 22.6425 30.5772 19.7598 30.5772 14.2626ZM42.8778 14.2123V13.7933C42.8778 10.6927 41.334 8.8324 38.8772 8.8324C36.4702 8.8324 34.8766 10.5419 34.8766 13.7933V14.2123C34.8766 17.2123 36.4204 18.9218 38.8772 18.9218C41.334 18.8715 42.8778 17.2123 42.8778 14.2123ZM49.5344 5.58101H53.12L53.535 8.73184C54.3982 6.62011 56.2408 5.16201 58.9632 5.16201C63.163 5.16201 65.9352 8.21229 65.9352 13.8603V14.3296C65.9352 19.8101 62.8642 22.7095 58.9632 22.7095C56.357 22.7095 54.5642 21.5196 53.6844 19.6089V28.0391H49.4846L49.5344 5.58101ZM61.5694 14.2123V13.8436C61.5694 10.5251 59.8762 8.88268 57.6186 8.88268C55.2116 8.88268 53.618 10.743 53.618 13.8436V14.162C53.618 17.1117 55.1618 18.9721 57.5688 18.9721C60.0422 18.9218 61.5694 17.3296 61.5694 14.2123ZM72.293 19.1899L71.9278 22.2402H68.2426V0H72.4424V8.53073C73.372 6.35195 75.2146 5.16201 77.8208 5.16201C81.7716 5.21229 84.6932 7.96089 84.6932 13.4916V14.0112C84.6932 19.5419 81.921 22.7095 77.7212 22.7095C74.949 22.6425 73.1562 21.352 72.293 19.1899ZM80.2776 14.0112V13.5922C80.2776 10.5419 78.6342 8.8324 76.3268 8.8324C73.9696 8.8324 72.3262 10.743 72.3262 13.6425V14.0112C72.3262 17.1117 73.9198 18.9218 76.277 18.9218C78.8002 18.9218 80.2776 17.3296 80.2776 14.0112ZM86.5358 14.2626V13.7933C86.5358 8.21229 90.0716 5.16201 94.8856 5.16201C99.7992 5.16201 103.235 8.21229 103.235 13.7933V14.2626C103.235 19.743 99.849 22.6927 94.8856 22.6927C89.557 22.6425 86.5358 19.7598 86.5358 14.2626ZM98.8696 14.2123V13.7933C98.8696 10.6927 97.3258 8.8324 94.869 8.8324C92.462 8.8324 90.8684 10.5419 90.8684 13.7933V14.2123C90.8684 17.2123 92.4122 18.9218 94.869 18.9218C97.3424 18.8715 98.8696 17.2123 98.8696 14.2123ZM108.863 13.5922L103.069 5.58101H108.033L111.369 10.5922L114.756 5.58101H119.669L113.793 13.5419L119.985 22.2402H115.121L111.336 16.7095L107.651 22.2402H102.571L108.863 13.5922Z" fill="#B9B9B9"/>
</svg>
