<svg width="101" height="33" viewBox="0 0 101 33" fill="none" xmlns="http://www.w3.org/2000/svg">
<path d="M43.2232 17.3659C43.2232 22.1137 39.4812 25.6122 34.8889 25.6122C30.2967 25.6122 26.5547 22.1137 26.5547 17.3659C26.5547 12.5847 30.2967 9.11963 34.8889 9.11963C39.4812 9.11963 43.2232 12.5847 43.2232 17.3659ZM39.5748 17.3659C39.5748 14.399 37.4061 12.3691 34.8889 12.3691C32.3718 12.3691 30.203 14.399 30.203 17.3659C30.203 20.3031 32.3718 22.3628 34.8889 22.3628C37.4061 22.3628 39.5748 20.2994 39.5748 17.3659Z" fill="#B9B9B9"/>
<path d="M61.2017 17.3662C61.2017 22.1139 57.4597 25.6125 52.8675 25.6125C48.2752 25.6125 44.5332 22.1139 44.5332 17.3662C44.5332 12.5887 48.2752 9.11987 52.8675 9.11987C57.4597 9.11987 61.2017 12.585 61.2017 17.3662ZM57.5534 17.3662C57.5534 14.3993 55.3846 12.3693 52.8675 12.3693C50.3503 12.3693 48.1815 14.3993 48.1815 17.3662C48.1815 20.3033 50.3503 22.363 52.8675 22.363C55.3846 22.363 57.5534 20.2996 57.5534 17.3662Z" fill="#B9B9B9"/>
<path d="M78.4317 9.61783V24.4225C78.4317 30.5124 74.8134 32.9997 70.5357 32.9997C66.5091 32.9997 64.0856 30.3265 63.1716 28.1404L66.348 26.828C66.9136 28.1702 68.2995 29.754 70.532 29.754C73.2701 29.754 74.9669 28.0772 74.9669 24.9207V23.7347H74.8396C74.023 24.7348 72.4498 25.6085 70.4646 25.6085C66.3105 25.6085 62.5049 22.017 62.5049 17.3957C62.5049 12.7409 66.3105 9.11963 70.4646 9.11963C72.446 9.11963 74.0193 9.99334 74.8396 10.9637H74.9669V9.62154H78.4317V9.61783ZM75.2254 17.3957C75.2254 14.492 73.2739 12.3691 70.7904 12.3691C68.2733 12.3691 66.1645 14.492 66.1645 17.3957C66.1645 20.2696 68.2733 22.3628 70.7904 22.3628C73.2739 22.3628 75.2254 20.2696 75.2254 17.3957Z" fill="#B9B9B9"/>
<path d="M84.1432 0.940674V25.107H80.5847V0.940674H84.1432Z" fill="#B9B9B9"/>
<path d="M98.0105 20.0805L100.842 21.9544C99.9283 23.2965 97.7258 25.6091 93.9201 25.6091C89.2005 25.6091 85.6758 21.9878 85.6758 17.3628C85.6758 12.4588 89.2305 9.11646 93.5118 9.11646C97.8232 9.11646 99.932 12.5221 100.621 14.3624L101 15.2993L89.8935 19.8649C90.7438 21.5194 92.066 22.3633 93.9201 22.3633C95.778 22.3633 97.0665 21.4562 98.0105 20.0805ZM89.2942 17.1137L96.7182 14.0538C96.3099 13.024 95.0813 12.3064 93.6355 12.3064C91.7813 12.3064 89.2005 13.9311 89.2942 17.1137Z" fill="#B9B9B9"/>
<path d="M13.0838 15.2211V11.7225H24.9615C25.0777 12.3323 25.1376 13.0535 25.1376 13.8343C25.1376 16.4591 24.4147 19.7049 22.0848 22.0174C19.8187 24.3597 16.9232 25.6089 13.0876 25.6089C5.97818 25.6089 0 19.861 0 12.8044C0 5.74787 5.97818 0 13.0876 0C17.0206 0 19.8224 1.53177 21.9275 3.52829L19.4403 5.99697C17.9308 4.59161 15.8856 3.49854 13.0838 3.49854C7.89225 3.49854 3.83188 7.65144 3.83188 12.8044C3.83188 17.9575 7.89225 22.1104 13.0838 22.1104C16.4512 22.1104 18.3691 20.7682 19.5977 19.5487C20.594 18.5598 21.2495 17.147 21.508 15.2174L13.0838 15.2211Z" fill="#B9B9B9"/>
</svg>
