<svg width="124" height="35" viewBox="0 0 124 35" fill="none" xmlns="http://www.w3.org/2000/svg">
<path d="M13.3675 5.65723V15.292H4.30135V5.65723H0V28.6567H4.30251V19.3346H13.3663V28.6567H17.67V5.65723H13.3675ZM31.4415 21.2229C31.4415 22.1448 31.0665 23.0289 30.3988 23.6807C29.7311 24.3326 28.8256 24.6988 27.8813 24.6988C26.9371 24.6988 26.0316 24.3326 25.3639 23.6807C24.6962 23.0289 24.3211 22.1448 24.3211 21.2229V11.371H20.2399V21.2229C20.2399 23.1996 21.0441 25.0953 22.4758 26.4931C23.9074 27.8908 25.8491 28.676 27.8738 28.676C29.8984 28.676 31.8401 27.8908 33.2718 26.4931C34.7034 25.0953 35.5077 23.1996 35.5077 21.2229V11.371H31.4415V21.2229ZM61.6826 12.3862C61.6826 10.366 63.0508 9.72599 64.5494 9.72599C65.758 9.72599 67.3533 10.6241 68.3978 11.7132L71.0701 8.6369C69.7357 6.87479 67.0296 5.65723 64.8137 5.65723C60.3854 5.65723 57.1833 8.18898 57.1833 12.3862C57.1833 20.1736 66.9318 17.7021 66.9318 22.0608C66.9318 23.4045 65.595 24.5914 64.065 24.5914C61.6511 24.5914 60.8686 23.4397 59.7601 22.221L56.7932 25.2325C58.6912 27.5062 61.0317 28.6613 63.8344 28.6613C68.0414 28.6613 71.4252 26.0988 71.4252 22.0926C71.4252 13.448 61.6756 16.1344 61.6756 12.3862H61.6826ZM121.992 24.9824C119.581 24.9824 118.895 23.9638 118.895 22.4041V15.4978H122.644V11.9985H118.895V7.38182L114.757 9.19509V23.2624C114.757 26.8605 117.3 28.6738 120.786 28.6738C121.333 28.6829 121.881 28.6397 122.418 28.5464L123.428 24.9176C122.973 24.9483 122.45 24.979 121.992 24.979V24.9824ZM46.9772 11.4858C44.9557 11.4858 43.5445 12.0588 42.1798 13.365V5.79479H38.0927V19.8269C38.0927 25.0791 41.9818 28.6783 46.353 28.6783C51.2017 28.6783 55.4669 25.0154 55.4669 20.0838C55.4669 15.2135 51.5417 11.4892 46.9772 11.4892V11.4858ZM46.9515 24.6619C46.3424 24.6619 45.7393 24.5447 45.1765 24.3171C44.6137 24.0895 44.1024 23.756 43.6717 23.3355C43.241 22.9149 42.8993 22.4157 42.6662 21.8663C42.4331 21.3168 42.3131 20.7279 42.3131 20.1332C42.3131 19.5385 42.4331 18.9496 42.6662 18.4002C42.8993 17.8508 43.241 17.3515 43.6717 16.931C44.1024 16.5105 44.6137 16.1769 45.1765 15.9493C45.7393 15.7218 46.3424 15.6046 46.9515 15.6046C48.1817 15.6046 49.3616 16.0817 50.2314 16.931C51.1013 17.7803 51.59 18.9322 51.59 20.1332C51.59 21.3343 51.1013 22.4862 50.2314 23.3355C49.3616 24.1847 48.1817 24.6619 46.9515 24.6619ZM91.3647 19.8746C91.3647 14.9339 87.1087 11.2801 82.2508 11.2801C77.8808 11.2801 73.9904 14.8782 73.9904 20.1315V34.1716H78.0775V26.5911C79.4399 27.895 80.8535 28.4703 82.8726 28.4703C87.4371 28.4703 91.3635 24.746 91.3635 19.8746H91.3647ZM87.4942 19.8246C87.4942 21.0256 87.0055 22.1775 86.1356 23.0268C85.2657 23.8761 84.0859 24.3532 82.8557 24.3532C81.6255 24.3532 80.4457 23.8761 79.5758 23.0268C78.706 22.1775 78.2173 21.0256 78.2173 19.8246C78.2173 18.6235 78.706 17.4716 79.5758 16.6224C80.4457 15.7731 81.6255 15.296 82.8557 15.296C84.0859 15.296 85.2657 15.7731 86.1356 16.6224C87.0055 17.4716 87.4942 18.6235 87.4942 19.8246Z" fill="#B9B9B9"/>
<path d="M104.572 11.0865V7.07685C105.114 6.82921 105.574 6.43618 105.897 5.94349C106.22 5.4508 106.392 4.87873 106.395 4.29386V4.20177C106.395 2.49651 104.979 1.11411 103.233 1.11411H103.138C102.3 1.11411 101.495 1.43941 100.902 2.01846C100.309 2.59751 99.9758 3.38287 99.9758 4.20177V4.29386C99.9786 4.87873 100.151 5.4508 100.474 5.94349C100.797 6.43618 101.257 6.82921 101.799 7.07685V11.0865C100.239 11.3197 98.7705 11.9511 97.541 12.9168L86.2776 4.35184C86.358 4.06876 86.3999 3.77773 86.4045 3.48556C86.4059 2.79744 86.1982 2.12437 85.8078 1.5515C85.4173 0.978622 84.8616 0.53168 84.2109 0.267203C83.5602 0.00272603 82.8438 -0.0674034 82.1523 0.0656852C81.4608 0.198774 80.8252 0.529101 80.3261 1.01488C79.8269 1.50067 79.4864 2.12008 79.3479 2.79478C79.2093 3.46947 79.2788 4.16914 79.5475 4.80527C79.8163 5.4414 80.2723 5.98543 80.8578 6.36852C81.4432 6.75162 82.132 6.95658 82.8368 6.95748C83.4534 6.95465 84.0585 6.79393 84.5915 6.49138L95.6826 14.9177C94.6862 16.3872 94.1664 18.1158 94.191 19.8779C94.2155 21.6401 94.7831 23.3542 95.82 24.7968L92.4467 28.0914C92.174 28.0063 91.8899 27.9611 91.6037 27.9573C91.0251 27.9577 90.4597 28.1256 89.9788 28.4397C89.498 28.7538 89.1233 29.2 88.9021 29.7219C88.6809 30.2439 88.6232 30.8181 88.7361 31.3721C88.8491 31.926 89.1278 32.4349 89.5369 32.8343C89.946 33.2337 90.4671 33.5057 91.0345 33.616C91.6019 33.7263 92.1901 33.67 92.7247 33.454C93.2593 33.2381 93.7163 32.8722 94.038 32.4028C94.3597 31.9333 94.5317 31.3813 94.5322 30.8164C94.5284 30.5369 94.4821 30.2595 94.3948 29.9934L97.732 26.734C98.8202 27.552 100.086 28.1159 101.432 28.3826C102.778 28.6493 104.168 28.6116 105.497 28.2725C106.826 27.9334 108.057 27.3019 109.098 26.4263C110.138 25.5507 110.959 24.4543 111.498 23.221C112.037 21.9878 112.28 20.6504 112.208 19.3114C112.135 17.9724 111.75 16.6672 111.082 15.4959C110.413 14.3247 109.479 13.3183 108.351 12.554C107.222 11.7897 105.93 11.2877 104.572 11.0865ZM103.188 24.2739C102.572 24.2905 101.958 24.1862 101.383 23.9672C100.808 23.7482 100.284 23.4189 99.842 22.9989C99.3998 22.5788 99.0483 22.0765 98.8082 21.5216C98.5682 20.9667 98.4445 20.3704 98.4445 19.768C98.4445 19.1656 98.5682 18.5694 98.8082 18.0144C99.0483 17.4595 99.3998 16.9572 99.842 16.5371C100.284 16.1171 100.808 15.7878 101.383 15.5688C101.958 15.3499 102.572 15.2456 103.188 15.2621C104.384 15.303 105.516 15.7952 106.347 16.6351C107.178 17.4749 107.643 18.5969 107.644 19.7647C107.644 20.9325 107.181 22.0549 106.351 22.8956C105.52 23.7363 104.388 24.2296 103.193 24.2716" fill="#B9B9B9"/>
</svg>
