<svg width="34" height="34" viewBox="0 0 34 34" fill="none" xmlns="http://www.w3.org/2000/svg">
<path d="M15.6167 0.783592C16.0033 -0.26115 17.481 -0.261147 17.8676 0.783594L21.6824 11.093C21.8039 11.4214 22.0629 11.6804 22.3914 11.802L32.7008 15.6168C33.7455 16.0034 33.7455 17.481 32.7007 17.8676L22.3914 21.6824C22.0629 21.804 21.8039 22.0629 21.6824 22.3914L17.8676 32.7008C17.481 33.7455 16.0033 33.7455 15.6167 32.7008L11.8019 22.3914C11.6804 22.0629 11.4214 21.804 11.0929 21.6824L0.783561 17.8676C-0.261181 17.481 -0.261178 16.0034 0.783564 15.6168L11.0929 11.802C11.4214 11.6804 11.6804 11.4214 11.8019 11.093L15.6167 0.783592Z" fill="#F0E714"/>
</svg>
